<svg width="504" height="288" viewBox="0 0 504 288" fill="none" xmlns="http://www.w3.org/2000/svg">
  <!-- Business Card: Front (left) + Back (right) -->

  <!-- FRONT -->
  <defs>
    <linearGradient id="card-bg" x1="0%" y1="0%" x2="100%" y2="100%">
      <stop offset="0%" stop-color="#4f46e5"/>
      <stop offset="100%" stop-color="#6366f1"/>
    </linearGradient>
  </defs>

  <rect width="252" height="144" fill="url(#card-bg)"/>

  <circle cx="35" cy="40" r="14" fill="white"/>
  <path d="M56 26C66 36 72 40 72 40C72 40 66 44 56 54" stroke="white" stroke-width="3" stroke-linecap="round" fill="none"/>
  <path d="M78 18C92 32 100 38 100 40C100 42 92 48 78 62" stroke="white" stroke-width="3" stroke-linecap="round" fill="none" opacity="0.5"/>

  <text x="30" y="80" font-family="Outfit, sans-serif" font-size="18" font-weight="700" fill="white">ShipSignal</text>
  <text x="30" y="100" font-family="Outfit, sans-serif" font-size="9" font-weight="400" fill="#c7d2fe">Skip the research. Start building.</text>

  <text x="30" y="125" font-family="Outfit, sans-serif" font-size="10" font-weight="600" fill="white">[Your Name]</text>
  <text x="30" y="137" font-family="Outfit, sans-serif" font-size="8" font-weight="400" fill="#c7d2fe">[Title]</text>

  <!-- BACK -->
  <rect x="252" y="0" width="252" height="144" fill="white"/>
  <rect x="252" y="0" width="252" height="4" fill="#6366f1"/>

  <text x="277" y="40" font-family="Outfit, sans-serif" font-size="9" font-weight="500" fill="#374151">Website</text>
  <text x="277" y="55" font-family="Outfit, sans-serif" font-size="9" font-weight="400" fill="#6366f1">shipsignal.ai</text>

  <text x="277" y="80" font-family="Outfit, sans-serif" font-size="9" font-weight="500" fill="#374151">Social</text>
  <text x="277" y="95" font-family="Outfit, sans-serif" font-size="9" font-weight="400" fill="#6366f1">@shipsignal</text>

  <circle cx="465" cy="110" r="10" fill="#eef2ff"/>
  <circle cx="465" cy="110" r="4" fill="#6366f1"/>
  <path d="M474 103C478 107 480 109 480 110C480 111 478 113 474 117" stroke="#818cf8" stroke-width="1.5" stroke-linecap="round" fill="none"/>

  <!-- Separator -->
  <line x1="252" y1="0" x2="252" y2="144" stroke="#e5e7eb" stroke-width="1" stroke-dasharray="4 4"/>
  <text x="252" y="160" font-family="Outfit, sans-serif" font-size="8" fill="#9ca3af" text-anchor="middle">Front | Back</text>
</svg>
