<svg width="612" height="792" viewBox="0 0 612 792" fill="none" xmlns="http://www.w3.org/2000/svg">
  <defs>
    <linearGradient id="lh-accent" x1="0%" y1="0%" x2="100%" y2="0%">
      <stop offset="0%" stop-color="#4f46e5"/>
      <stop offset="100%" stop-color="#6366f1"/>
    </linearGradient>
  </defs>

  <rect width="612" height="792" fill="white"/>

  <!-- Header accent -->
  <rect x="0" y="0" width="612" height="6" fill="url(#lh-accent)"/>

  <!-- Signal icon with exactly 2 waves -->
  <circle cx="72" cy="55" r="16" fill="#6366f1"/>
  <path d="M98 37C112 51 122 55 122 55C122 55 112 59 98 73" stroke="#818cf8" stroke-width="4" stroke-linecap="round" fill="none" opacity="0.6"/>
  <path d="M122 23C142 43 156 51 156 55C156 59 142 67 122 87" stroke="#a5b4fc" stroke-width="4" stroke-linecap="round" fill="none" opacity="0.4"/>

  <text x="175" y="62" font-family="Outfit, sans-serif" font-size="22" font-weight="700" fill="#374151">ShipSignal</text>

  <!-- Contact (top right) -->
  <text x="540" y="42" font-family="Outfit, sans-serif" font-size="9" font-weight="400" fill="#6b7280" text-anchor="end">shipsignal.ai</text>
  <text x="540" y="55" font-family="Outfit, sans-serif" font-size="9" font-weight="400" fill="#6b7280" text-anchor="end">@shipsignal</text>

  <line x1="72" y1="90" x2="540" y2="90" stroke="#e5e7eb" stroke-width="1"/>

  <!-- Content placeholder -->
  <text x="72" y="140" font-family="Outfit, sans-serif" font-size="10" fill="#9ca3af">[Date]</text>
  <text x="72" y="180" font-family="Outfit, sans-serif" font-size="10" fill="#9ca3af">[Recipient]</text>
  <text x="72" y="230" font-family="Outfit, sans-serif" font-size="10" fill="#d1d5db">[Letter content...]</text>

  <!-- Footer -->
  <line x1="72" y1="720" x2="540" y2="720" stroke="#e5e7eb" stroke-width="1"/>
  <text x="306" y="750" font-family="Outfit, sans-serif" font-size="9" fill="#9ca3af" text-anchor="middle">Skip the research. Start building.</text>
  <text x="306" y="765" font-family="Outfit, sans-serif" font-size="9" fill="#6366f1" text-anchor="middle">shipsignal.ai</text>
</svg>
