<svg width="200" height="200" viewBox="0 0 200 200" fill="none" xmlns="http://www.w3.org/2000/svg">
  <!-- Repeating signal wave pattern tile -->
  <defs>
    <pattern id="signal-wave-pattern" x="0" y="0" width="200" height="200" patternUnits="userSpaceOnUse">
      <!-- Signal 1 -->
      <circle cx="30" cy="30" r="8" fill="#6366f1" opacity="0.15"/>
      <path d="M50 15C60 25 65 30 65 30C65 30 60 35 50 45" stroke="#6366f1" stroke-width="2" stroke-linecap="round" fill="none" opacity="0.1"/>
      <path d="M65 5C80 20 88 28 88 30C88 32 80 40 65 55" stroke="#818cf8" stroke-width="2" stroke-linecap="round" fill="none" opacity="0.08"/>

      <!-- Signal 2 -->
      <circle cx="130" cy="80" r="6" fill="#818cf8" opacity="0.12"/>
      <path d="M146 68C154 76 158 80 158 80C158 80 154 84 146 92" stroke="#818cf8" stroke-width="1.5" stroke-linecap="round" fill="none" opacity="0.08"/>
      <path d="M158 60C170 72 176 78 176 80C176 82 170 88 158 100" stroke="#a5b4fc" stroke-width="1.5" stroke-linecap="round" fill="none" opacity="0.06"/>

      <!-- Signal 3 -->
      <circle cx="60" cy="150" r="7" fill="#a5b4fc" opacity="0.1"/>
      <path d="M78 138C86 146 92 150 92 150C92 150 86 154 78 162" stroke="#a5b4fc" stroke-width="1.5" stroke-linecap="round" fill="none" opacity="0.08"/>

      <!-- Signal 4 -->
      <circle cx="170" cy="170" r="5" fill="#6366f1" opacity="0.1"/>
      <path d="M182 162C188 168 192 170 192 170C192 170 188 172 182 178" stroke="#6366f1" stroke-width="1.5" stroke-linecap="round" fill="none" opacity="0.06"/>
    </pattern>
  </defs>

  <rect width="200" height="200" fill="url(#signal-wave-pattern)"/>
</svg>
