<svg width="200" height="200" viewBox="0 0 200 200" fill="none" xmlns="http://www.w3.org/2000/svg">
  <!-- Repeating signal wave pattern tile -->
  <circle cx="30" cy="30" r="6" fill="#6366f1" opacity="0.12"/>
  <path d="M45 18C52 25 56 29 56 30C56 31 52 35 45 42" stroke="#818cf8" stroke-width="2" stroke-linecap="round" fill="none" opacity="0.08"/>
  <path d="M58 10C68 20 74 26 74 30C74 34 68 40 58 50" stroke="#a5b4fc" stroke-width="2" stroke-linecap="round" fill="none" opacity="0.05"/>

  <circle cx="130" cy="80" r="5" fill="#818cf8" opacity="0.1"/>
  <path d="M142 70C148 76 152 79 152 80C152 81 148 84 142 90" stroke="#a5b4fc" stroke-width="1.5" stroke-linecap="round" fill="none" opacity="0.06"/>

  <circle cx="60" cy="150" r="5" fill="#a5b4fc" opacity="0.08"/>
  <path d="M72 140C78 146 82 149 82 150C82 151 78 154 72 160" stroke="#a5b4fc" stroke-width="1.5" stroke-linecap="round" fill="none" opacity="0.05"/>

  <circle cx="170" cy="170" r="4" fill="#6366f1" opacity="0.08"/>
</svg>
