<svg width="1080" height="1080" viewBox="0 0 1080 1080" fill="none" xmlns="http://www.w3.org/2000/svg">
  <defs>
    <linearGradient id="ig-post-bg" x1="0%" y1="0%" x2="100%" y2="100%">
      <stop offset="0%" stop-color="#312e81"/>
      <stop offset="50%" stop-color="#4f46e5"/>
      <stop offset="100%" stop-color="#6366f1"/>
    </linearGradient>
  </defs>

  <rect width="1080" height="1080" fill="url(#ig-post-bg)"/>

  <!-- Decorative background waves -->
  <circle cx="850" cy="250" r="180" fill="none" stroke="#818cf8" stroke-width="4" opacity="0.08"/>
  <circle cx="850" cy="250" r="300" fill="none" stroke="#818cf8" stroke-width="4" opacity="0.05"/>

  <!-- Headline -->
  <text x="80" y="480" font-family="Outfit, sans-serif" font-size="64" font-weight="700" fill="white">Skip the research.</text>
  <text x="80" y="570" font-family="Outfit, sans-serif" font-size="64" font-weight="700" fill="white">Start building.</text>

  <!-- CTA -->
  <rect x="80" y="650" width="360" height="70" rx="35" fill="white"/>
  <text x="260" y="698" font-family="Outfit, sans-serif" font-size="26" font-weight="600" fill="#4f46e5" text-anchor="middle">Get tomorrow's ideas</text>

  <!-- Logo with 2 waves -->
  <circle cx="100" cy="980" r="24" fill="white"/>
  <path d="M140 950C160 970 174 978 174 980C174 982 160 990 140 1010" stroke="white" stroke-width="5" stroke-linecap="round" fill="none" opacity="0.6"/>
  <path d="M172 926C198 952 216 968 216 980C216 992 198 1008 172 1034" stroke="white" stroke-width="5" stroke-linecap="round" fill="none" opacity="0.4"/>
  <text x="240" y="990" font-family="Outfit, sans-serif" font-size="28" font-weight="600" fill="white">ShipSignal</text>
  <text x="455" y="990" font-family="Outfit, sans-serif" font-size="22" font-weight="400" fill="#a5b4fc">shipsignal.ai</text>
</svg>
