<svg width="1080" height="1350" viewBox="0 0 1080 1350" fill="none" xmlns="http://www.w3.org/2000/svg">
  <defs>
    <linearGradient id="ig-portrait-grad" x1="0%" y1="0%" x2="100%" y2="100%">
      <stop offset="0%" stop-color="#312e81"/>
      <stop offset="50%" stop-color="#4f46e5"/>
      <stop offset="100%" stop-color="#6366f1"/>
    </linearGradient>
  </defs>

  <!-- Background -->
  <rect width="1080" height="1350" fill="url(#ig-portrait-grad)"/>

  <!-- Decorative signal waves (top right) -->
  <circle cx="900" cy="200" r="150" fill="none" stroke="#818cf8" stroke-width="4" opacity="0.08"/>
  <circle cx="900" cy="200" r="280" fill="none" stroke="#818cf8" stroke-width="4" opacity="0.05"/>
  <circle cx="900" cy="200" r="410" fill="none" stroke="#818cf8" stroke-width="4" opacity="0.03"/>

  <!-- Main content area -->
  <rect x="80" y="350" width="920" height="650" rx="20" fill="white" opacity="0.1"/>

  <!-- Headline -->
  <text x="540" y="750" font-family="Outfit, sans-serif" font-size="72" font-weight="700" fill="white" text-anchor="middle">[Headline]</text>

  <!-- Body text area -->
  <text x="540" y="850" font-family="Outfit, sans-serif" font-size="28" font-weight="400" fill="#c7d2fe" text-anchor="middle" opacity="0.8">[Description text]</text>

  <!-- CTA Button placeholder -->
  <rect x="340" y="1050" width="400" height="60" rx="30" fill="white"/>
  <text x="540" y="1092" font-family="Outfit, sans-serif" font-size="24" font-weight="600" fill="#4f46e5" text-anchor="middle">Call to Action</text>

  <!-- Logo (bottom left) -->
  <circle cx="100" cy="1250" r="24" fill="white"/>
  <path d="M136 1222C150 1236 160 1244 160 1250C160 1256 150 1264 136 1278" stroke="white" stroke-width="5" stroke-linecap="round" fill="none"/>
  <path d="M165 1202C186 1223 198 1238 198 1250C198 1262 186 1277 165 1298" stroke="white" stroke-width="5" stroke-linecap="round" fill="none" opacity="0.6"/>

  <text x="220" y="1262" font-family="Outfit, sans-serif" font-size="32" font-weight="600" fill="white">ShipSignal</text>
</svg>
