<svg width="1500" height="500" viewBox="0 0 1500 500" fill="none" xmlns="http://www.w3.org/2000/svg">
  <defs>
    <linearGradient id="x-header-bg" x1="0%" y1="0%" x2="100%" y2="0%">
      <stop offset="0%" stop-color="#312e81"/>
      <stop offset="50%" stop-color="#4f46e5"/>
      <stop offset="100%" stop-color="#6366f1"/>
    </linearGradient>
  </defs>

  <rect width="1500" height="500" fill="url(#x-header-bg)"/>

  <!-- Decorative waves -->
  <circle cx="1250" cy="250" r="150" fill="none" stroke="#818cf8" stroke-width="3" opacity="0.1"/>
  <circle cx="1250" cy="250" r="260" fill="none" stroke="#818cf8" stroke-width="3" opacity="0.06"/>
  <circle cx="1250" cy="250" r="370" fill="none" stroke="#818cf8" stroke-width="3" opacity="0.03"/>

  <!-- Logo signal -->
  <circle cx="150" cy="250" r="40" fill="white"/>
  <path d="M220 170C252 202 272 228 272 250C272 272 252 298 220 330" stroke="white" stroke-width="10" stroke-linecap="round" fill="none"/>
  <path d="M285 110C330 155 360 204 360 250C360 296 330 345 285 390" stroke="white" stroke-width="10" stroke-linecap="round" fill="none" opacity="0.6"/>
  <path d="M350 55C408 113 445 182 445 250C445 318 408 387 350 445" stroke="white" stroke-width="10" stroke-linecap="round" fill="none" opacity="0.35"/>

  <!-- Brand Name -->
  <text x="500" y="235" font-family="Outfit, sans-serif" font-size="72" font-weight="700" fill="white">ShipSignal</text>

  <!-- Tagline -->
  <text x="500" y="310" font-family="Outfit, sans-serif" font-size="28" font-weight="400" fill="#c7d2fe">Skip the research. Start building.</text>
</svg>
