<svg width="1200" height="675" viewBox="0 0 1200 675" fill="none" xmlns="http://www.w3.org/2000/svg">
  <defs>
    <linearGradient id="x-post-bg" x1="0%" y1="0%" x2="100%" y2="100%">
      <stop offset="0%" stop-color="#312e81"/>
      <stop offset="50%" stop-color="#4f46e5"/>
      <stop offset="100%" stop-color="#6366f1"/>
    </linearGradient>
  </defs>

  <rect width="1200" height="675" fill="url(#x-post-bg)"/>

  <!-- Decorative background waves -->
  <circle cx="1000" cy="337" r="150" fill="none" stroke="#818cf8" stroke-width="3" opacity="0.08"/>
  <circle cx="1000" cy="337" r="280" fill="none" stroke="#818cf8" stroke-width="3" opacity="0.05"/>

  <!-- Main headline area -->
  <text x="100" y="300" font-family="Outfit, sans-serif" font-size="56" font-weight="700" fill="white">Skip the research.</text>
  <text x="100" y="380" font-family="Outfit, sans-serif" font-size="56" font-weight="700" fill="white">Start building.</text>

  <!-- CTA -->
  <rect x="100" y="440" width="320" height="60" rx="30" fill="white"/>
  <text x="260" y="482" font-family="Outfit, sans-serif" font-size="22" font-weight="600" fill="#4f46e5" text-anchor="middle">Get tomorrow's ideas</text>

  <!-- Logo with 2 waves -->
  <circle cx="100" cy="600" r="18" fill="white"/>
  <path d="M130 576C144 590 152 596 152 600C152 604 144 610 130 624" stroke="white" stroke-width="4" stroke-linecap="round" fill="none" opacity="0.6"/>
  <path d="M155 556C174 575 186 588 186 600C186 612 174 625 155 644" stroke="white" stroke-width="4" stroke-linecap="round" fill="none" opacity="0.4"/>
  <text x="210" y="608" font-family="Outfit, sans-serif" font-size="20" font-weight="600" fill="white">@shipsignal</text>
  <text x="385" y="608" font-family="Outfit, sans-serif" font-size="18" font-weight="400" fill="#a5b4fc">shipsignal.ai</text>
</svg>
