<svg width="1200" height="630" viewBox="0 0 1200 630" fill="none" xmlns="http://www.w3.org/2000/svg">
  <defs>
    <linearGradient id="og-bg" x1="0%" y1="0%" x2="100%" y2="100%">
      <stop offset="0%" stop-color="#312e81"/>
      <stop offset="50%" stop-color="#4f46e5"/>
      <stop offset="100%" stop-color="#6366f1"/>
    </linearGradient>
    <linearGradient id="og-text" x1="0%" y1="0%" x2="100%" y2="0%">
      <stop offset="0%" stop-color="#4f46e5"/>
      <stop offset="100%" stop-color="#818cf8"/>
    </linearGradient>
  </defs>

  <rect width="1200" height="630" fill="url(#og-bg)"/>

  <!-- Decorative waves -->
  <circle cx="950" cy="315" r="150" fill="none" stroke="#818cf8" stroke-width="3" opacity="0.1"/>
  <circle cx="950" cy="315" r="250" fill="none" stroke="#818cf8" stroke-width="3" opacity="0.06"/>
  <circle cx="950" cy="315" r="350" fill="none" stroke="#818cf8" stroke-width="3" opacity="0.03"/>

  <!-- Logo -->
  <circle cx="100" cy="315" r="30" fill="white"/>
  <path d="M150 265C175 290 190 305 190 315C190 325 175 340 150 365" stroke="white" stroke-width="8" stroke-linecap="round" fill="none"/>
  <path d="M195 225C230 260 250 290 250 315C250 340 230 370 195 405" stroke="white" stroke-width="8" stroke-linecap="round" fill="none" opacity="0.6"/>
  <path d="M240 185C285 230 310 275 310 315C310 355 285 400 240 445" stroke="white" stroke-width="8" stroke-linecap="round" fill="none" opacity="0.35"/>

  <!-- Brand Name -->
  <text x="360" y="300" font-family="Outfit, sans-serif" font-size="72" font-weight="700" fill="white">ShipSignal</text>

  <!-- Tagline -->
  <text x="360" y="370" font-family="Outfit, sans-serif" font-size="32" font-weight="400" fill="#c7d2fe">Skip the research. Start building.</text>

  <!-- Website -->
  <text x="100" y="580" font-family="Outfit, sans-serif" font-size="20" font-weight="500" fill="#a5b4fc" opacity="0.8">shipsignal.ai</text>
</svg>
